Land_normalized_Precision Landing17_filtered_grf
version=1
nRows=30
nColumns=37
inDegrees=yes
endheader
time		1_ground_force_vx		1_ground_force_vy		1_ground_force_vz		1_ground_force_px		1_ground_force_py		1_ground_force_pz		1_ground_torque_x		1_ground_torque_y		1_ground_torque_z		2_ground_force_vx		2_ground_force_vy		2_ground_force_vz		2_ground_force_px		2_ground_force_py		2_ground_force_pz		2_ground_torque_x		2_ground_torque_y		2_ground_torque_z		3_ground_force_vx		3_ground_force_vy		3_ground_force_vz		3_ground_force_px		3_ground_force_py		3_ground_force_pz		3_ground_torque_x		3_ground_torque_y		3_ground_torque_z		4_ground_force_vx		4_ground_force_vy		4_ground_force_vz		4_ground_force_px		4_ground_force_py		4_ground_force_pz		4_ground_torque_x		4_ground_torque_y		4_ground_torque_z		
1.134500		-4.149704		-30.342528		-22.854382		0.088446		0.000000		0.303822		-0.033096		-0.242001		-0.182278		0.058541		-28.357678		-6.060412		-0.155274		0.000000		0.356301		0.001963		-0.950748		-0.203187		6.247469		-0.504900		-0.590587		0.353124		1.255104		1.891655		0.002311		-0.000187		-0.000218		-20.013094		0.544568		-2.707883		-0.289312		1.264805		1.901745		0.008087		-0.000220		0.001094		
1.137732		-3.010087		-46.622385		-41.926481		0.098966		0.000000		0.293728		-0.011414		-0.175947		-0.158108		-0.257448		-42.882101		-24.484524		-0.193392		0.000000		0.299616		-0.016490		-2.743218		-1.567516		6.327631		-0.465099		-0.610743		0.353175		1.255115		1.891632		0.002970		-0.000218		-0.000286		-19.881566		0.523946		-2.555013		-0.289275		1.264803		1.901714		0.009938		-0.000262		0.001277		
1.140965		0.736072		-44.094489		-48.192403		0.111210		0.000000		0.282692		0.000775		-0.047588		-0.051960		-0.412065		-39.937104		-40.284007		-0.237174		0.000000		0.230347		-0.027892		-2.703478		-2.726630		6.339238		-0.439765		-0.612449		0.353222		1.255137		1.891617		0.003157		-0.000219		-0.000305		-19.739260		0.498324		-2.391601		-0.289241		1.264804		1.901679		0.011612		-0.000293		0.001407		
1.144197		6.736141		-6.968152		-26.950179		0.280875		0.000000		0.473039		-0.724379		-4.410621		-0.367428		0.135060		-5.140782		-40.879358		-0.302101		0.000000		-0.077426		-2.463797		0.087792		0.410074		6.285509		-0.445933		-0.595141		0.353263		1.255164		1.891608		0.002852		-0.000202		-0.000270		-19.627515		0.471493		-2.271012		-0.289212		1.264806		1.901646		0.012508		-0.000301		0.001447		
1.147429		13.016830		74.834736		32.210091		0.075344		0.000000		0.315091		0.214466		1.226795		0.525150		2.212413		70.805373		-12.623885		-0.136137		0.000000		0.415411		-0.061369		-1.965199		0.378790		6.189794		-0.481584		-0.576045		0.353303		1.255193		1.891601		0.002128		-0.000165		-0.000198		-19.563637		0.449207		-2.227305		-0.289186		1.264809		1.901615		0.012268		-0.000282		0.001397		
1.150662		16.013272		200.431855		129.098411		0.090212		0.000000		0.300790		0.096196		1.200657		0.772901		6.940951		187.770070		53.895429		-0.156444		0.000000		0.343866		0.312649		8.451314		2.433245		6.081271		-0.527998		-0.574429		0.353341		1.255219		1.891590		0.001161		-0.000101		-0.000109		-19.545173		0.439521		-2.266808		-0.289159		1.264811		1.901589		0.010971		-0.000247		0.001272		
1.153894		11.429130		354.604300		247.319470		0.096708		0.000000		0.295991		0.032678		1.009616		0.704082		15.592806		333.845980		156.636590		-0.177399		0.000000		0.316066		0.982250		21.026906		9.867433		5.982036		-0.561610		-0.593975		0.353379		1.255239		1.891573		0.000365		-0.000034		-0.000036		-19.562196		0.451851		-2.367571		-0.289127		1.264813		1.901563		0.009125		-0.000211		0.001105		
1.157126		-4.155813		513.419114		356.492182		0.101109		0.000000		0.293831		-0.003222		0.418700		0.290843		29.434807		491.602752		278.761715		-0.189247		0.000000		0.301777		2.057024		34.352820		19.480267		5.899781		-0.568485		-0.617635		0.353415		1.255252		1.891546		0.000443		-0.000043		-0.000046		-19.608646		0.493633		-2.487835		-0.289086		1.264813		1.901535		0.007391		-0.000186		0.000937		
1.160359		-31.227704		655.995755		422.399466		0.104492		0.000000		0.293891		0.024276		-0.506457		-0.325798		49.197981		649.881904		390.273975		-0.193417		0.000000		0.298183		3.563518		47.071786		28.268051		5.827546		-0.549487		-0.621327		0.353450		1.255257		1.891513		0.002010		-0.000190		-0.000214		-19.684400		0.565574		-2.577425		-0.289035		1.264812		1.901500		0.006217		-0.000179		0.000814		
1.163591		-66.079725		776.917999		422.767330		0.106814		0.000000		0.296944		0.106635		-1.253646		-0.682155		74.030116		814.425567		456.713839		-0.189100		0.000000		0.306732		5.243037		57.682097		32.348163		5.752815		-0.514022		-0.594085		0.353483		1.255255		1.891473		0.005068		-0.000453		-0.000524		-19.791495		0.657892		-2.596615		-0.288975		1.264811		1.901457		0.005644		-0.000188		0.000740		
1.166823		-101.039099		888.953974		358.847376		0.107779		0.000000		0.303922		0.064260		-0.567440		-0.230730		100.342822		1005.146930		450.700608		-0.176868		0.000000		0.326803		6.237361		62.483579		28.027130		5.672233		-0.472601		-0.544624		0.353520		1.255246		1.891427		0.008850		-0.000738		-0.000849		-19.926948		0.750118		-2.535633		-0.288912		1.264808		1.901406		0.005425		-0.000204		0.000690		
1.170056		-126.288053		1014.436420		255.938608		0.107840		0.000000		0.314949		-0.414738		3.331642		0.838640		122.356980		1238.074694		363.350261		-0.162560		0.000000		0.352957		5.421268		54.851111		16.108363		5.600248		-0.437121		-0.492542		0.353560		1.255231		1.891376		0.012175		-0.000951		-0.001070		-20.076426		0.816689		-2.422708		-0.288851		1.264805		1.901353		0.005320		-0.000216		0.000642		
1.173288		-132.822168		1172.040235		151.118287		0.108191		0.000000		0.328914		-1.275832		11.266688		1.448018		134.856466		1505.666695		209.387094		-0.154097		0.000000		0.378355		2.887957		32.218007		4.508663		5.564875		-0.423428		-0.454727		0.353606		1.255208		1.891320		0.013996		-0.001065		-0.001144		-20.215694		0.835887		-2.310002		-0.288799		1.264800		1.901302		0.005285		-0.000218		0.000604		
1.176520		-116.517864		1363.966614		76.304930		0.109036		0.000000		0.343563		-1.891449		22.144520		1.238494		136.253949		1768.017753		27.613664		-0.152990		0.000000		0.398529		0.207371		2.686507		0.044643		5.590660		-0.445972		-0.438416		0.353653		1.255183		1.891266		0.013815		-0.001102		-0.001083		-20.317960		0.800061		-2.245475		-0.288759		1.264795		1.901258		0.005443		-0.000214		0.000601		
1.179753		-80.340084		1570.793060		46.446792		0.109685		0.000000		0.356483		-1.743677		34.121692		1.008555		129.056944		1964.141390		-129.671080		-0.155225		0.000000		0.411371		-1.453457		-22.136408		1.467892		5.679104		-0.506978		-0.443032		0.353698		1.255159		1.891217		0.011716		-0.001045		-0.000914		-20.361881		0.719743		-2.248338		-0.288733		1.264791		1.901220		0.005899		-0.000208		0.000651		
1.182985		-35.106819		1754.726133		57.228495		0.109733		0.000000		0.366005		-0.904263		45.203211		1.474302		118.780886		2042.207409		-213.942416		-0.157026		0.000000		0.416200		-2.025135		-34.818675		3.647704		5.797463		-0.586879		-0.464602		0.353731		1.255142		1.891184		0.008328		-0.000843		-0.000667		-20.340021		0.622709		-2.296435		-0.288722		1.264789		1.901192		0.006602		-0.000202		0.000746		
1.186217		4.340535		1872.790749		95.146438		0.109082		0.000000		0.371092		0.123996		53.332983		2.710091		111.345984		1984.843975		-197.307704		-0.156747		0.000000		0.412604		-1.823774		-32.511395		3.233189		5.895266		-0.648724		-0.501818		0.353750		1.255135		1.891171		0.004667		-0.000514		-0.000397		-20.256245		0.542400		-2.340147		-0.288725		1.264788		1.901168		0.007394		-0.000198		0.000854		
1.189449		25.083187		1897.329908		146.693277		0.107580		0.000000		0.371106		0.752184		56.894668		4.398966		110.360735		1821.012178		-87.141903		-0.154609		0.000000		0.400518		-0.980818		-16.189449		0.777858		5.931243		-0.655606		-0.554218		0.353755		1.255138		1.891173		0.001942		-0.000215		-0.000182		-20.123024		0.502850		-2.328471		-0.288738		1.264788		1.901147		0.008150		-0.000204		0.000943		
1.192682		21.787130		1827.404332		204.076327		0.104924		0.000000		0.365490		0.657012		55.102976		6.153394		115.000580		1603.530997		79.899792		-0.152791		0.000000		0.380652		0.718833		9.991080		0.517614		5.890738		-0.593836		-0.615382		0.353749		1.255150		1.891189		0.001030		-0.000104		-0.000107		-19.956339		0.507601		-2.237857		-0.288758		1.264788		1.901130		0.008873		-0.000226		0.000995		
1.195914		-0.445588		1690.730919		262.541516		0.100945		0.000000		0.354127		-0.012490		48.295331		7.498734		119.612170		1385.827095		251.395367		-0.154763		0.000000		0.355907		3.247529		37.608427		6.837019		5.789826		-0.487940		-0.669867		0.353735		1.255165		1.891209		0.001907		-0.000161		-0.000221		-19.778466		0.536285		-2.088011		-0.288780		1.264787		1.901118		0.009576		-0.000260		0.001011		
1.199146		-29.835019		1527.864245		316.277693		0.095999		0.000000		0.338011		-0.739476		37.907851		7.845196		116.636932		1204.303426		380.941053		-0.161096		0.000000		0.331383		5.536405		57.159481		18.092929		5.662995		-0.387171		-0.699872		0.353712		1.255183		1.891225		0.003651		-0.000249		-0.000452		-19.617887		0.554788		-1.927941		-0.288802		1.264786		1.901114		0.010123		-0.000287		0.000995		
1.202379		-54.402892		1376.605511		357.589551		0.091176		0.000000		0.320324		-1.055869		26.733457		6.942618		101.572497		1074.188832		443.902527		-0.166616		0.000000		0.313004		6.178238		65.343075		27.005705		5.548069		-0.333657		-0.696878		0.353682		1.255198		1.891231		0.005078		-0.000305		-0.000638		-19.502996		0.533559		-1.809503		-0.288819		1.264789		1.901119		0.010230		-0.000280		0.000949		
1.205611		-67.424402		1260.177237		379.715394		0.087640		0.000000		0.305996		-0.971406		18.159126		5.471069		76.462381		993.395687		441.842590		-0.166224		0.000000		0.304761		5.012533		65.123230		28.965505		5.471896		-0.335461		-0.666091		0.353644		1.255209		1.891228		0.005564		-0.000341		-0.000678		-19.450412		0.465463		-1.762048		-0.288831		1.264796		1.901134		0.009602		-0.000230		0.000870		
1.208843		-68.327718		1184.093001		380.471124		0.085861		0.000000		0.299152		-0.812995		14.088825		4.526945		49.097261		949.131132		396.876393		-0.160516		0.000000		0.306129		3.110524		60.120700		25.140294		5.442612		-0.368282		-0.620283		0.353601		1.255218		1.891220		0.005231		-0.000354		-0.000596		-19.457655		0.369956		-1.782475		-0.288840		1.264809		1.901155		0.008129		-0.000155		0.000745		
1.212076		-60.310207		1139.862201		363.550372		0.085695		0.000000		0.300279		-0.729278		13.784014		4.396257		28.145451		925.208735		339.380592		-0.153949		0.000000		0.312645		1.620412		53.257837		19.536664		5.451666		-0.400432		-0.568975		0.353555		1.255221		1.891215		0.004560		-0.000335		-0.000476		-19.506990		0.280346		-1.845168		-0.288846		1.264823		1.901178		0.006044		-0.000087		0.000572		
1.215308		-47.529234		1112.577938		336.765525		0.086515		0.000000		0.306085		-0.643027		15.054749		4.556727		18.088782		907.867532		294.838174		-0.150058		0.000000		0.319101		0.946494		47.499103		15.426374		5.483988		-0.414726		-0.512918		0.353510		1.255218		1.891217		0.003976		-0.000301		-0.000372		-19.575627		0.224964		-1.922584		-0.288853		1.264837		1.901199		0.003940		-0.000046		0.000387		
1.218540		-33.700837		1087.914996		308.773807		0.087224		0.000000		0.311910		-0.500269		16.150130		4.583724		17.375879		888.300889		274.900674		-0.149412		0.000000		0.322209		0.875254		44.745267		13.847228		5.527340		-0.410992		-0.449940		0.353474		1.255210		1.891227		0.003722		-0.000277		-0.000303		-19.642909		0.213548		-2.002577		-0.288862		1.264845		1.901218		0.002537		-0.000028		0.000259		
1.221773		-21.482695		1056.956565		285.830153		0.086814		0.000000		0.314395		-0.333526		16.410551		4.437846		20.869267		862.755540		276.250585		-0.150801		0.000000		0.321309		1.082589		44.752338		14.329777		5.577105		-0.393171		-0.387536		0.353447		1.255197		1.891244		0.003920		-0.000276		-0.000272		-19.695010		0.237948		-2.091555		-0.288874		1.264846		1.901236		0.002354		-0.000029		0.000250		
1.225005		-12.238578		1017.330521		270.155501		0.085056		0.000000		0.312667		-0.188827		15.696070		4.168143		23.618241		831.535450		285.681674		-0.152551		0.000000		0.317699		1.299239		45.742672		15.715332		5.633742		-0.358491		-0.347680		0.353431		1.255182		1.891262		0.004628		-0.000294		-0.000285		-19.727290		0.281368		-2.199476		-0.288889		1.264841		1.901255		0.003456		-0.000049		0.000385		
1.228237		-6.227551		971.338222		260.424567		0.082504		0.000000		0.307921		-0.090278		14.076100		3.773893		23.712220		797.472210		289.490774		-0.153238		0.000000		0.313416		1.367155		45.979146		16.691026		5.698063		-0.298142		-0.354249		0.353425		1.255167		1.891280		0.005813		-0.000304		-0.000362		-19.742440		0.330922		-2.322697		-0.288908		1.264830		1.901278		0.005539		-0.000093		0.000652		
